<?xml version="1.0" standalone="no"?>
<!DOCTYPE svg PUBLIC "-//W3C//DTD SVG 20010904//EN"
 "http://www.w3.org/TR/2001/REC-SVG-20010904/DTD/svg10.dtd">
<svg version="1.0" xmlns="http://www.w3.org/2000/svg"
 width="549.000000pt" height="577.000000pt" viewBox="0 0 549.000000 577.000000"
 preserveAspectRatio="xMidYMid meet">
<metadata>
Created by potrace 1.16, written by Peter Selinger 2001-2019
</metadata>
<g transform="translate(0.000000,577.000000) scale(0.100000,-0.100000)"
fill="#000000" stroke="none">
<path d="M2190 5580 c-11 -11 -22 -30 -25 -42 -3 -13 -5 -148 -3 -301 l3 -279
24 -19 c18 -15 39 -19 97 -19 52 0 74 -4 75 -12 1 -7 3 -106 5 -220 4 -222 11
-259 55 -273 11 -4 72 1 135 10 100 16 134 16 282 6 93 -6 184 -14 203 -17 28
-5 41 -1 63 17 l27 24 2 230 2 230 82 5 c125 8 117 -12 121 317 2 152 1 287
-3 300 -3 13 -14 32 -25 43 -19 19 -36 20 -560 20 -524 0 -541 -1 -560 -20z"/>
<path d="M1048 4558 c-8 -7 -99 -100 -202 -206 -233 -242 -228 -225 -93 -357
254 -248 387 -365 414 -365 5 0 42 39 81 88 66 82 208 221 314 308 26 22 47
46 47 54 1 14 -290 310 -431 438 -59 54 -97 66 -130 40z"/>
<path d="M4327 4523 c-114 -103 -389 -380 -403 -405 -25 -48 -18 -74 32 -115
130 -107 138 -114 304 -302 80 -90 93 -83 398 208 l172 165 0 47 0 48 -196
200 c-228 233 -222 230 -307 154z"/>
<path d="M2510 4390 c-421 -58 -786 -235 -1090 -526 -213 -205 -377 -455 -479
-731 l-23 -63 -232 0 c-269 0 -303 -7 -371 -75 -75 -74 -75 -76 -75 -610 0
-534 0 -536 75 -610 69 -70 98 -75 406 -75 l268 0 45 -90 c253 -510 755 -896
1318 -1015 339 -72 682 -51 1014 60 469 156 876 512 1103 963 l41 82 273 0
c315 0 343 5 412 75 75 74 75 76 75 610 0 517 -1 525 -60 597 -17 20 -51 47
-77 60 -46 22 -61 23 -301 28 l-254 5 -23 65 c-149 422 -488 813 -895 1033
-170 92 -347 155 -556 198 -113 23 -478 35 -594 19z m485 -535 c374 -67 725
-301 930 -621 34 -53 85 -148 85 -159 0 -3 -567 -5 -1260 -5 -693 0 -1260 3
-1260 6 0 17 89 170 134 231 275 369 716 584 1161 568 66 -2 161 -11 210 -20z
m2095 -905 c26 -13 47 -34 60 -60 19 -38 20 -58 20 -505 0 -447 -1 -467 -20
-505 -13 -26 -34 -47 -60 -60 -39 -20 -54 -20 -2335 -20 -2281 0 -2296 0
-2335 20 -26 13 -47 34 -60 60 -19 38 -20 58 -20 505 0 447 1 467 20 505 12
24 35 47 58 59 37 20 67 20 2335 21 2284 0 2298 0 2337 -20z m-1210 -1295
c-52 -75 -208 -232 -298 -300 -157 -117 -356 -206 -565 -252 -117 -25 -418
-25 -537 1 -326 70 -596 233 -808 486 -35 41 -68 83 -73 93 -9 16 49 17 1151
17 l1161 0 -31 -45z"/>
</g>
</svg>
