<?xml version="1.0" standalone="no"?>
<!DOCTYPE svg PUBLIC "-//W3C//DTD SVG 20010904//EN"
 "http://www.w3.org/TR/2001/REC-SVG-20010904/DTD/svg10.dtd">
<svg version="1.0" xmlns="http://www.w3.org/2000/svg"
 width="2056.000000pt" height="1032.000000pt" viewBox="0 0 2056.000000 1032.000000"
 preserveAspectRatio="xMidYMid meet">
<metadata>
Created by potrace 1.16, written by Peter Selinger 2001-2019
</metadata>
<g transform="translate(0.000000,1032.000000) scale(0.100000,-0.100000)"
fill="#000000" stroke="none">
<path d="M13955 8770 c-71 -33 -397 -178 -722 -322 -326 -145 -594 -267 -594
-273 -1 -5 122 -85 275 -176 152 -91 281 -170 286 -175 10 -10 -18 -58 -540
-934 -136 -228 -260 -437 -275 -463 -15 -27 -31 -45 -36 -40 -4 4 -121 220
-259 478 -157 293 -266 484 -288 508 -95 99 -250 82 -337 -36 -17 -23 -319
-583 -670 -1244 -352 -662 -642 -1203 -645 -1203 -9 0 -361 591 -702 1180
-181 311 -345 585 -365 609 -45 54 -101 80 -174 81 -113 0 -99 13 -771 -706
l-611 -654 -201 0 c-110 0 -387 3 -613 7 l-413 6 0 304 c0 356 -3 377 -69 443
-108 108 -281 81 -351 -55 l-25 -49 -6 -411 c-4 -225 -8 -621 -10 -880 l-4
-470 28 -57 c90 -183 352 -157 407 41 5 20 13 181 17 359 l6 323 702 -3 701
-3 41 27 c22 15 285 288 583 608 299 319 547 577 551 573 4 -4 125 -210 269
-458 143 -247 265 -457 270 -465 5 -8 128 -211 272 -450 144 -239 275 -447
290 -462 54 -53 105 -72 193 -72 96 -1 145 20 198 86 19 24 315 571 658 1216
525 987 626 1170 636 1156 6 -9 107 -194 224 -412 272 -509 275 -512 470 -512
71 0 93 4 135 25 28 14 64 42 81 63 45 57 526 831 548 882 11 25 58 110 106
190 47 80 152 257 233 393 144 242 148 248 169 234 108 -69 589 -348 594 -344
3 4 -2 100 -11 214 -9 114 -25 323 -36 463 -11 140 -31 395 -45 567 -14 171
-25 321 -25 332 0 12 -3 21 -7 20 -5 0 -66 -27 -138 -59z"/>
</g>
</svg>
