<?xml version="1.0" standalone="no"?>
<!DOCTYPE svg PUBLIC "-//W3C//DTD SVG 20010904//EN"
 "http://www.w3.org/TR/2001/REC-SVG-20010904/DTD/svg10.dtd">
<svg version="1.0" xmlns="http://www.w3.org/2000/svg"
 width="2056.000000pt" height="1032.000000pt" viewBox="0 0 2056.000000 1032.000000"
 preserveAspectRatio="xMidYMid meet">
<metadata>
Created by potrace 1.16, written by Peter Selinger 2001-2019
</metadata>
<g transform="translate(0.000000,1032.000000) scale(0.100000,-0.100000)"
fill="#000000" stroke="none">
<path d="M8801 6734 c-44 -22 -146 -127 -664 -682 l-612 -655 -509 6 c-280 4
-590 7 -688 7 l-178 0 0 368 c0 405 -6 456 -59 522 -15 19 -47 45 -72 58 -37
20 -55 23 -111 20 -86 -5 -140 -39 -180 -117 l-28 -53 0 -951 c0 -1078 -3
-1035 75 -1112 100 -100 271 -79 342 43 l28 47 3 363 3 363 773 -3 772 -3 41
27 c22 15 285 288 583 608 299 319 547 577 551 573 4 -4 298 -510 652 -1123
355 -613 657 -1132 672 -1153 16 -25 44 -47 78 -63 88 -40 171 -28 241 36 28
26 180 256 447 675 l404 635 712 0 713 0 0 -355 c0 -205 4 -355 9 -355 5 0 96
62 203 138 106 76 389 277 628 447 239 170 445 316 457 325 21 17 10 25 -625
473 -356 251 -653 461 -659 468 -11 10 -13 -57 -13 -339 l0 -351 -792 -3 -793
-3 -57 -28 c-32 -16 -70 -45 -87 -66 -17 -21 -175 -265 -351 -542 -177 -277
-324 -505 -328 -507 -4 -1 -290 486 -636 1083 -346 597 -645 1104 -665 1127
-69 81 -180 101 -280 52z"/>
</g>
</svg>
