<?xml version="1.0" standalone="no"?>
<!DOCTYPE svg PUBLIC "-//W3C//DTD SVG 20010904//EN"
 "http://www.w3.org/TR/2001/REC-SVG-20010904/DTD/svg10.dtd">
<svg version="1.0" xmlns="http://www.w3.org/2000/svg"
 width="2056.000000pt" height="1032.000000pt" viewBox="0 0 2056.000000 1032.000000"
 preserveAspectRatio="xMidYMid meet">
<metadata>
Created by potrace 1.16, written by Peter Selinger 2001-2019
</metadata>
<g transform="translate(0.000000,1032.000000) scale(0.100000,-0.100000)"
fill="#000000" stroke="none">
<path d="M6062 7381 c-58 -15 -110 -60 -139 -120 l-28 -56 4 -470 c2 -258 6
-655 10 -880 l6 -411 25 -49 c70 -136 243 -163 351 -55 66 66 69 87 69 443 l0
304 413 6 c226 4 503 7 613 7 l201 0 611 -654 c672 -719 658 -706 771 -706 73
1 129 27 174 81 20 24 184 298 365 609 341 589 693 1180 702 1180 3 0 293
-541 645 -1202 351 -662 653 -1222 670 -1245 87 -118 242 -135 337 -36 22 24
131 215 288 508 138 259 255 474 259 478 5 5 21 -13 36 -40 15 -26 139 -235
275 -463 522 -876 550 -924 540 -934 -5 -5 -134 -84 -286 -175 -153 -91 -277
-170 -277 -175 1 -9 225 -110 1137 -515 176 -77 320 -140 321 -139 2 3 27 302
75 918 10 135 27 341 36 458 9 117 14 216 11 219 -5 4 -487 -276 -594 -344
-21 -14 -25 -8 -169 234 -81 136 -186 313 -233 393 -48 80 -95 165 -106 190
-22 51 -503 825 -548 882 -17 21 -53 49 -81 63 -42 21 -64 25 -135 25 -195 0
-198 -3 -470 -512 -117 -218 -218 -403 -224 -412 -10 -14 -111 169 -636 1156
-343 645 -639 1192 -658 1216 -53 66 -102 87 -198 86 -88 0 -139 -19 -193 -72
-15 -15 -146 -223 -290 -462 -144 -239 -267 -442 -272 -450 -5 -8 -127 -217
-270 -465 -144 -247 -265 -454 -269 -458 -4 -4 -252 254 -551 573 -298 320
-561 593 -583 608 l-41 27 -703 -3 -703 -3 -1 188 c-1 328 -12 492 -36 538
-48 92 -153 140 -251 116z"/>
</g>
</svg>
