<?xml version="1.0" standalone="no"?>
<!DOCTYPE svg PUBLIC "-//W3C//DTD SVG 20010904//EN"
 "http://www.w3.org/TR/2001/REC-SVG-20010904/DTD/svg10.dtd">
<svg version="1.0" xmlns="http://www.w3.org/2000/svg"
 width="2056.000000pt" height="1032.000000pt" viewBox="0 0 2056.000000 1032.000000"
 preserveAspectRatio="xMidYMid meet">
<metadata>
Created by potrace 1.16, written by Peter Selinger 2001-2019
</metadata>
<g transform="translate(0.000000,1032.000000) scale(0.100000,-0.100000)"
fill="#000000" stroke="none">
<path d="M10285 9204 c-330 -50 -579 -224 -716 -499 -57 -115 -89 -245 -89
-365 0 -295 182 -599 445 -744 157 -87 289 -120 475 -120 186 0 318 33 475
120 263 145 445 449 445 744 0 243 -122 494 -318 655 -162 134 -346 202 -567
209 -66 3 -133 2 -150 0z"/>
<path d="M10085 7201 c-53 -24 -115 -95 -138 -158 -10 -27 -284 -986 -610
-2130 l-592 -2082 -870 -691 c-478 -380 -892 -712 -919 -738 -110 -106 -123
-251 -32 -358 77 -90 221 -111 322 -48 43 26 1733 1364 1872 1481 64 55 100
114 117 195 18 86 1015 3591 1024 3601 4 4 65 -115 136 -265 282 -600 295
-624 382 -713 76 -77 94 -89 482 -310 222 -126 425 -238 450 -247 178 -64 357
73 338 259 -7 71 -45 134 -110 181 -29 22 -220 135 -425 252 -205 117 -379
222 -387 234 -8 11 -151 311 -318 666 -167 355 -318 673 -336 707 -66 132
-142 183 -271 183 -51 0 -88 -6 -115 -19z"/>
<path d="M9470 7076 c-54 -17 -1466 -656 -1527 -692 -50 -29 -87 -74 -109
-135 -22 -61 -65 -1043 -48 -1125 13 -69 57 -130 119 -169 43 -26 57 -30 124
-30 65 0 83 4 123 28 26 15 59 42 72 60 54 70 57 94 76 551 10 236 22 432 27
436 4 5 305 142 668 306 363 164 665 302 670 306 88 65 123 119 132 203 10 99
-39 191 -127 239 -60 33 -136 41 -200 22z"/>
<path d="M9812 4135 c-125 -55 -190 -207 -139 -326 21 -50 77 -109 129 -137
23 -13 338 -153 698 -311 l655 -289 3 -33 c2 -19 -29 -452 -68 -964 -39 -512
-70 -964 -67 -1006 6 -119 61 -197 166 -234 126 -44 271 25 315 151 14 38 36
285 97 1084 43 569 83 1063 88 1096 16 108 -22 208 -102 262 -45 32 -1536 692
-1602 711 -54 15 -133 13 -173 -4z"/>
</g>
</svg>
