<?xml version="1.0" standalone="no"?>
<!DOCTYPE svg PUBLIC "-//W3C//DTD SVG 20010904//EN"
 "http://www.w3.org/TR/2001/REC-SVG-20010904/DTD/svg10.dtd">
<svg version="1.0" xmlns="http://www.w3.org/2000/svg"
 width="2056.000000pt" height="1032.000000pt" viewBox="0 0 2056.000000 1032.000000"
 preserveAspectRatio="xMidYMid meet">
<metadata>
Created by potrace 1.16, written by Peter Selinger 2001-2019
</metadata>
<g transform="translate(0.000000,1032.000000) scale(0.100000,-0.100000)"
fill="#000000" stroke="none">
<path d="M10285 9204 c-330 -50 -579 -224 -716 -499 -57 -115 -89 -245 -89
-365 0 -295 182 -599 445 -744 157 -87 289 -120 475 -120 186 0 318 33 475
120 263 145 445 449 445 744 0 243 -122 494 -318 655 -162 134 -346 202 -567
209 -66 3 -133 2 -150 0z"/>
<path d="M10279 7287 c-68 -35 -119 -91 -141 -155 -10 -30 -13 -348 -13 -1589
l0 -1552 -540 -543 c-297 -298 -544 -546 -550 -549 -5 -4 -336 -118 -735 -254
-399 -136 -747 -258 -775 -272 -95 -47 -142 -113 -152 -208 -10 -100 38 -190
129 -241 45 -25 63 -29 123 -28 64 1 134 23 818 258 411 140 766 265 790 277
23 12 65 38 92 59 28 20 59 43 71 51 30 20 1124 1082 1155 1121 39 50 57 90
75 165 15 61 16 190 9 1331 -4 694 -3 1262 1 1261 11 0 663 -739 714 -807 50
-67 123 -102 215 -103 109 -2 1433 120 1494 137 72 20 151 98 170 166 43 154
-56 304 -213 323 -32 4 -292 -16 -694 -52 -456 -42 -647 -56 -656 -49 -8 6
-242 270 -521 586 -279 316 -528 594 -554 618 -98 92 -199 108 -312 49z"/>
<path d="M9785 7145 c-57 -14 -1368 -643 -1433 -687 -27 -19 -63 -60 -96 -111
-71 -109 -613 -1106 -633 -1163 -24 -70 -14 -160 23 -220 87 -142 300 -154
406 -23 19 24 165 282 323 572 161 296 297 534 309 542 12 8 301 149 643 314
342 164 642 313 668 331 132 91 150 268 37 381 -34 34 -62 51 -101 63 -63 19
-79 19 -146 1z"/>
<path d="M10767 3746 c-55 -21 -103 -61 -134 -114 -24 -40 -28 -58 -28 -122 0
-63 4 -82 27 -120 14 -25 41 -59 60 -76 18 -17 278 -226 578 -464 300 -238
550 -438 557 -444 8 -8 14 -189 23 -656 6 -355 15 -676 21 -713 14 -85 55
-150 123 -192 44 -27 58 -30 126 -30 68 0 82 3 126 30 60 38 110 109 120 173
10 68 -15 1464 -27 1539 -13 74 -51 139 -105 179 -21 16 -304 241 -629 499
-325 259 -610 481 -634 494 -53 29 -150 37 -204 17z"/>
</g>
</svg>
