<?xml version="1.0" standalone="no"?>
<!DOCTYPE svg PUBLIC "-//W3C//DTD SVG 20010904//EN"
 "http://www.w3.org/TR/2001/REC-SVG-20010904/DTD/svg10.dtd">
<svg version="1.0" xmlns="http://www.w3.org/2000/svg"
 width="2056.000000pt" height="1032.000000pt" viewBox="0 0 2056.000000 1032.000000"
 preserveAspectRatio="xMidYMid meet">
<metadata>
Created by potrace 1.16, written by Peter Selinger 2001-2019
</metadata>
<g transform="translate(0.000000,1032.000000) scale(0.100000,-0.100000)"
fill="#000000" stroke="none">
<path d="M10285 9204 c-330 -50 -579 -224 -716 -499 -57 -115 -89 -245 -89
-365 0 -295 182 -599 445 -744 157 -87 289 -120 475 -120 186 0 318 33 475
120 263 145 445 449 445 744 0 243 -122 494 -318 655 -162 134 -346 202 -567
209 -66 3 -133 2 -150 0z"/>
<path d="M10279 7287 c-68 -35 -119 -91 -141 -155 -10 -30 -13 -348 -13 -1589
l0 -1552 -540 -543 c-297 -298 -544 -546 -550 -549 -5 -4 -336 -118 -735 -254
-399 -136 -747 -258 -775 -272 -95 -47 -142 -113 -152 -208 -10 -100 38 -190
129 -241 45 -25 63 -29 123 -28 64 1 134 23 818 258 411 140 766 265 790 277
23 12 65 38 92 59 28 20 59 43 71 51 30 20 1124 1082 1155 1121 39 50 57 90
75 165 15 61 16 190 9 1331 -4 694 -3 1262 1 1261 11 0 663 -739 714 -807 50
-67 123 -102 215 -103 109 -2 1433 120 1494 137 72 20 151 98 170 166 43 154
-56 304 -213 323 -32 4 -292 -16 -694 -52 -456 -42 -647 -56 -656 -49 -8 6
-242 270 -521 586 -279 316 -528 594 -554 618 -98 92 -199 108 -312 49z"/>
<path d="M8985 7061 c-468 -93 -809 -166 -836 -178 -26 -11 -66 -38 -89 -59
-24 -21 -223 -240 -444 -487 -437 -487 -466 -526 -466 -623 0 -131 95 -238
223 -251 63 -6 115 7 171 46 22 14 208 215 414 446 206 231 384 430 396 443
19 19 114 40 771 171 421 83 770 157 795 168 56 25 125 99 139 149 46 167 -60
320 -227 329 -42 2 -266 -39 -847 -154z"/>
<path d="M5949 6841 c-88 -27 -124 -104 -84 -181 32 -62 4 -60 797 -60 689 0
725 1 765 19 52 24 77 68 70 123 -3 22 -14 49 -24 60 -43 48 -36 48 -790 47
-389 0 -720 -4 -734 -8z"/>
<path d="M6903 5080 c-628 -4 -1157 -10 -1177 -14 -22 -4 -46 -19 -65 -42 -69
-78 -23 -185 84 -197 28 -4 577 -3 1220 1 1283 8 1208 4 1249 66 21 32 21 105
0 135 -22 31 -90 61 -134 59 -19 -1 -549 -5 -1177 -8z"/>
<path d="M10830 3945 c-175 -56 -228 -280 -99 -415 19 -20 295 -224 614 -454
319 -231 588 -427 599 -437 18 -17 9 -33 -321 -581 -187 -309 -348 -581 -359
-603 -26 -57 -25 -157 3 -210 84 -159 279 -191 402 -66 57 57 841 1350 866
1429 31 93 6 193 -68 273 -42 46 -1386 1017 -1448 1047 -60 29 -132 36 -189
17z"/>
<path d="M5735 3361 c-48 -12 -74 -29 -91 -63 -20 -38 -14 -101 13 -130 43
-49 33 -48 876 -55 880 -7 845 -9 887 59 41 68 14 144 -62 171 -37 13 -152 16
-818 20 -426 3 -788 1 -805 -2z"/>
</g>
</svg>
