<?xml version="1.0" standalone="no"?>
<!DOCTYPE svg PUBLIC "-//W3C//DTD SVG 20010904//EN"
 "http://www.w3.org/TR/2001/REC-SVG-20010904/DTD/svg10.dtd">
<svg version="1.0" xmlns="http://www.w3.org/2000/svg"
 width="914.000000pt" height="921.000000pt" viewBox="0 0 914.000000 921.000000"
 preserveAspectRatio="xMidYMid meet">
<metadata>
Created by potrace 1.16, written by Peter Selinger 2001-2019
</metadata>
<g transform="translate(0.000000,921.000000) scale(0.100000,-0.100000)"
fill="#000000" stroke="none">
<path d="M3230 8133 c-14 -9 -26 -17 -28 -18 -13 -9 -42 -128 -51 -205 -32
-293 -173 -697 -350 -1005 -22 -38 -47 -82 -56 -97 -18 -32 -116 -181 -142
-217 -10 -13 -38 -52 -63 -86 -96 -134 -176 -240 -195 -259 -11 -11 -53 -63
-93 -116 -41 -52 -81 -102 -90 -110 -10 -8 -52 -60 -96 -115 -43 -55 -86 -107
-95 -115 -9 -8 -45 -53 -81 -100 -35 -47 -80 -103 -100 -125 -88 -98 -258
-336 -407 -571 -63 -98 -223 -420 -223 -448 0 -8 -4 -17 -9 -20 -4 -3 -14 -27
-21 -53 -8 -27 -22 -67 -32 -90 -10 -23 -22 -61 -27 -85 -5 -24 -17 -68 -26
-98 -8 -30 -27 -120 -42 -200 -23 -130 -25 -171 -26 -405 -1 -243 1 -269 27
-403 15 -78 35 -168 45 -200 10 -31 22 -70 25 -86 4 -16 16 -48 27 -70 10 -22
19 -46 19 -54 0 -8 6 -26 14 -40 8 -15 32 -63 54 -107 68 -140 124 -227 240
-375 81 -103 265 -290 286 -290 7 0 25 -13 41 -30 16 -16 33 -30 38 -30 5 0
36 -16 68 -37 33 -20 62 -33 66 -29 4 4 1 26 -5 49 -14 46 -18 72 -27 162 -7
69 -21 111 -40 118 -15 6 -166 177 -292 332 -33 39 -112 175 -156 267 -130
270 -176 483 -177 808 0 299 44 556 138 805 43 114 106 249 162 349 14 24 36
64 49 87 56 104 322 483 384 549 13 14 57 68 97 120 40 52 78 100 84 105 7 6
49 57 95 115 46 58 89 110 95 115 14 11 176 213 285 354 267 346 463 674 604
1011 40 97 81 225 112 350 7 30 21 80 29 110 9 30 16 69 16 86 0 33 23 63 34
45 3 -5 34 -28 68 -51 83 -57 299 -226 500 -391 139 -114 470 -411 597 -534
148 -144 217 -226 356 -420 134 -187 188 -250 207 -239 69 43 187 138 181 147
-4 7 -17 26 -30 43 -13 17 -23 34 -23 37 0 11 -211 304 -274 382 -127 156
-515 522 -735 693 -33 26 -136 108 -228 183 -258 208 -383 302 -588 443 -120
83 -163 95 -215 59z"/>
<path d="M6845 7048 c-16 -6 -58 -23 -93 -39 -35 -16 -65 -29 -68 -29 -13 0
-473 -227 -620 -306 -183 -98 -245 -133 -424 -240 -184 -111 -358 -226 -570
-379 -201 -145 -457 -367 -665 -578 -308 -313 -574 -674 -651 -882 -14 -38
-35 -90 -45 -113 l-20 -44 28 -21 c53 -43 134 -97 143 -97 6 0 10 4 10 10 0 5
14 39 30 75 17 36 30 70 30 76 0 16 57 121 94 174 20 28 57 81 82 119 157 233
402 509 645 727 40 35 82 73 93 84 12 11 44 38 71 60 28 21 52 42 55 45 7 8
140 112 167 130 12 8 54 40 95 71 74 57 386 269 395 269 2 0 23 13 46 29 76
52 245 150 442 258 141 77 583 293 599 293 8 0 18 5 21 10 3 6 14 10 23 10 15
0 17 -14 19 -122 1 -121 8 -239 19 -328 20 -162 117 -528 184 -695 115 -285
142 -343 457 -965 182 -360 266 -546 320 -709 14 -42 29 -85 33 -96 18 -47 51
-178 70 -280 33 -183 43 -387 25 -551 -4 -33 -7 -66 -7 -74 -1 -26 -58 -293
-74 -345 -58 -189 -151 -362 -278 -520 -66 -82 -178 -194 -231 -233 -27 -19
-72 -52 -100 -73 -163 -121 -416 -228 -636 -268 -62 -12 -154 -19 -233 -20
-112 -1 -151 3 -270 29 -264 58 -377 70 -611 63 -115 -3 -253 -4 -305 -4 l-95
2 -35 -51 c-19 -28 -57 -79 -84 -113 l-49 -62 59 -8 c56 -8 219 -5 514 9 84 4
175 2 240 -5 131 -15 311 -50 326 -62 15 -12 252 -37 313 -33 182 12 293 28
411 60 368 101 719 328 955 619 132 163 254 393 321 605 8 25 18 59 24 75 11
36 46 204 54 260 44 322 16 676 -80 1010 -70 243 -143 410 -428 980 -133 264
-258 516 -278 560 -72 158 -79 176 -148 358 -41 110 -100 321 -116 417 -3 14
-9 48 -14 75 -22 115 -31 240 -29 400 1 94 2 209 3 256 0 64 -3 90 -14 101
-39 38 -86 47 -145 26z"/>
<path d="M3283 4615 c-25 -17 -34 -47 -58 -175 -40 -215 -160 -462 -324 -670
-33 -42 -193 -231 -216 -256 -96 -103 -238 -260 -286 -318 -13 -16 -29 -34
-34 -40 -46 -50 -143 -177 -191 -251 -111 -169 -182 -335 -221 -518 -27 -124
-24 -373 5 -490 105 -419 419 -723 887 -858 57 -17 117 -22 315 -29 233 -8
252 -10 387 -44 240 -60 299 -69 398 -61 168 13 444 102 592 191 232 140 418
360 536 635 89 206 107 302 107 556 0 172 -3 212 -24 303 -38 169 -140 415
-230 558 -14 23 -26 44 -26 46 0 12 -151 222 -223 311 -174 215 -410 447 -638
629 -41 33 -94 76 -119 96 -168 135 -561 400 -594 400 -12 0 -31 -7 -43 -15z
m237 -274 c749 -515 1250 -1078 1439 -1614 95 -269 100 -577 15 -834 -81 -243
-243 -474 -434 -620 -133 -101 -340 -183 -547 -218 -118 -20 -147 -16 -373 40
-174 44 -269 55 -461 55 -141 0 -169 3 -275 30 -474 120 -803 512 -804 961 -1
262 98 529 289 784 39 53 193 237 229 274 73 76 347 386 398 452 162 207 277
411 336 599 20 63 40 130 43 148 l7 33 36 -23 c21 -12 66 -42 102 -67z"/>
</g>
</svg>
