<?xml version="1.0" standalone="no"?>
<!DOCTYPE svg PUBLIC "-//W3C//DTD SVG 20010904//EN"
 "http://www.w3.org/TR/2001/REC-SVG-20010904/DTD/svg10.dtd">
<svg version="1.0" xmlns="http://www.w3.org/2000/svg"
 width="990.000000pt" height="883.000000pt" viewBox="0 0 990.000000 883.000000"
 preserveAspectRatio="xMidYMid meet">
<metadata>
Created by potrace 1.16, written by Peter Selinger 2001-2019
</metadata>
<g transform="translate(0.000000,883.000000) scale(0.100000,-0.100000)"
fill="#000000" stroke="none">
<path d="M4320 7473 c-14 -9 -26 -17 -28 -18 -13 -9 -42 -128 -51 -205 -32
-293 -173 -697 -350 -1005 -22 -38 -47 -82 -56 -97 -18 -32 -116 -181 -142
-217 -10 -13 -38 -52 -63 -86 -96 -134 -176 -240 -195 -259 -11 -11 -53 -63
-93 -116 -41 -52 -81 -102 -90 -110 -10 -8 -52 -60 -96 -115 -43 -55 -86 -107
-95 -115 -9 -8 -45 -53 -81 -100 -35 -47 -80 -103 -100 -125 -88 -98 -258
-336 -407 -571 -63 -98 -223 -420 -223 -448 0 -8 -4 -17 -9 -20 -4 -3 -14 -27
-21 -53 -8 -27 -22 -67 -32 -90 -10 -23 -22 -61 -27 -85 -5 -24 -17 -68 -26
-98 -8 -30 -27 -120 -42 -200 -23 -130 -25 -171 -26 -405 -1 -243 1 -269 27
-403 15 -78 35 -168 45 -200 10 -31 22 -70 25 -86 4 -16 16 -48 27 -70 10 -22
19 -46 19 -54 0 -8 6 -26 14 -40 8 -15 32 -63 54 -107 68 -140 124 -227 241
-375 131 -167 326 -343 494 -447 29 -17 57 -36 63 -41 21 -19 313 -162 330
-162 5 0 38 -11 74 -24 203 -75 294 -88 655 -91 318 -3 423 -19 730 -110 66
-19 181 -47 255 -61 240 -47 442 -23 790 93 91 30 172 61 180 68 8 7 26 16 40
20 37 11 157 73 218 111 29 19 55 34 58 34 18 0 266 204 335 277 197 206 333
403 469 679 38 77 75 158 83 180 160 442 197 643 197 1067 0 280 -27 501 -86
707 -8 30 -20 73 -24 95 -5 22 -26 85 -45 140 -20 55 -40 114 -44 130 -5 17
-17 50 -29 75 -11 25 -37 83 -57 130 -78 179 -204 418 -308 582 -129 206 -179
279 -294 429 -194 254 -190 250 -455 544 -396 438 -1051 1003 -1613 1389 -120
83 -163 95 -215 59z m290 -432 c105 -77 241 -181 295 -227 28 -23 87 -71 131
-106 112 -87 408 -344 523 -453 143 -136 368 -368 461 -475 45 -52 99 -113
119 -135 21 -22 73 -85 116 -140 44 -55 84 -104 91 -110 21 -19 209 -284 276
-388 71 -112 149 -241 160 -262 5 -11 22 -42 38 -70 74 -127 217 -442 247
-540 8 -27 19 -54 24 -59 5 -6 9 -20 9 -32 0 -12 7 -39 16 -60 24 -56 60 -206
92 -374 25 -135 27 -164 27 -425 0 -250 -2 -294 -23 -405 -42 -228 -61 -299
-134 -500 -42 -116 -144 -328 -187 -389 -12 -16 -21 -32 -21 -35 0 -15 -119
-180 -201 -278 -246 -293 -493 -461 -850 -576 -259 -85 -324 -97 -494 -96
-151 1 -133 -3 -510 103 -247 68 -433 90 -774 91 -198 0 -234 5 -416 52 -44
12 -98 29 -120 38 -136 59 -180 80 -263 127 -123 69 -263 177 -376 288 -79 77
-113 116 -214 240 -32 40 -111 176 -155 267 -130 270 -176 483 -177 808 0 299
44 556 138 805 43 114 106 249 162 349 14 24 36 64 49 87 56 104 322 483 384
549 13 14 57 68 97 120 40 52 78 100 84 105 7 6 49 57 95 115 46 58 89 110 95
115 14 11 176 213 285 354 267 346 463 674 604 1011 40 97 81 225 112 350 7
30 21 80 29 110 9 30 16 69 16 86 0 45 18 57 49 33 14 -11 55 -41 91 -68z"/>
</g>
</svg>
