<?xml version="1.0" standalone="no"?>
<!DOCTYPE svg PUBLIC "-//W3C//DTD SVG 20010904//EN"
 "http://www.w3.org/TR/2001/REC-SVG-20010904/DTD/svg10.dtd">
<svg version="1.0" xmlns="http://www.w3.org/2000/svg"
 width="1084.000000pt" height="893.000000pt" viewBox="0 0 1084.000000 893.000000"
 preserveAspectRatio="xMidYMid meet">
<metadata>
Created by potrace 1.16, written by Peter Selinger 2001-2019
</metadata>
<g transform="translate(0.000000,893.000000) scale(0.100000,-0.100000)"
fill="#000000" stroke="none">
<path d="M3990 7953 c-14 -9 -26 -17 -28 -18 -13 -9 -42 -128 -51 -205 -32
-293 -173 -697 -350 -1005 -22 -38 -47 -82 -56 -97 -18 -32 -116 -181 -142
-217 -10 -13 -38 -52 -63 -86 -96 -134 -176 -240 -195 -259 -11 -11 -53 -63
-93 -116 -41 -52 -81 -102 -90 -110 -10 -8 -52 -60 -96 -115 -43 -55 -86 -107
-95 -115 -9 -8 -45 -53 -81 -100 -35 -47 -80 -103 -100 -125 -88 -98 -258
-336 -407 -571 -63 -98 -223 -420 -223 -448 0 -8 -4 -17 -9 -20 -4 -3 -14 -27
-21 -53 -8 -27 -22 -67 -32 -90 -10 -23 -22 -61 -27 -85 -5 -24 -17 -68 -26
-98 -8 -30 -27 -120 -42 -200 -23 -130 -25 -171 -26 -405 -1 -243 1 -269 27
-403 15 -78 35 -168 45 -200 10 -31 22 -70 25 -86 4 -16 16 -48 27 -70 10 -22
19 -46 19 -54 0 -8 6 -26 14 -40 8 -15 32 -63 54 -107 68 -140 124 -227 241
-375 131 -167 326 -343 494 -447 29 -17 57 -36 63 -41 21 -19 313 -162 330
-162 5 0 38 -11 74 -24 102 -38 219 -69 290 -78 36 -4 214 -12 395 -17 366
-10 386 -13 596 -91 188 -68 324 -83 525 -57 86 12 97 16 173 67 44 30 80 57
81 60 0 3 -19 16 -43 29 -23 13 -65 41 -93 62 l-50 39 -180 -3 -179 -2 -165
57 c-91 31 -199 64 -240 72 -118 24 -297 36 -529 36 -220 0 -251 4 -436 52
-44 12 -98 29 -120 38 -136 59 -180 80 -263 127 -123 69 -263 177 -376 288
-79 77 -113 116 -214 240 -32 40 -111 176 -155 267 -130 270 -176 483 -177
808 0 299 44 556 138 805 43 114 106 249 162 349 14 24 36 64 49 87 56 104
322 483 384 549 13 14 57 68 97 120 40 52 78 100 84 105 7 6 49 57 95 115 46
58 89 110 95 115 14 11 176 213 285 354 267 346 463 674 604 1011 40 97 81
225 112 350 7 30 21 80 29 110 9 30 16 69 16 86 0 33 23 63 34 45 3 -5 34 -28
68 -51 83 -57 299 -226 500 -391 139 -114 470 -411 597 -534 148 -144 217
-226 356 -420 134 -187 188 -250 207 -239 69 43 187 138 181 147 -4 7 -17 26
-30 43 -13 17 -23 34 -23 37 0 11 -211 304 -274 382 -127 156 -515 522 -735
693 -33 26 -136 108 -228 183 -258 208 -383 302 -588 443 -120 83 -163 95
-215 59z"/>
<path d="M7605 6868 c-16 -6 -58 -23 -93 -39 -35 -16 -65 -29 -68 -29 -13 0
-473 -227 -620 -306 -183 -98 -245 -133 -424 -240 -184 -111 -358 -226 -570
-379 -201 -145 -457 -367 -665 -578 -240 -244 -418 -468 -569 -715 -68 -113
-206 -383 -206 -406 0 -8 -3 -17 -8 -20 -4 -2 -20 -44 -36 -93 -16 -48 -32
-95 -36 -103 -6 -13 -68 -307 -99 -470 -12 -67 -7 -509 7 -595 6 -33 13 -78
17 -100 11 -70 63 -279 85 -344 37 -111 101 -265 137 -331 20 -36 43 -78 51
-95 85 -165 273 -380 446 -512 235 -179 489 -306 696 -348 87 -18 159 -18 566
1 79 4 171 2 235 -5 130 -15 310 -50 325 -62 15 -12 252 -37 313 -33 182 12
293 28 411 60 368 101 719 328 955 619 132 163 254 393 321 605 8 25 18 59 24
75 11 36 46 204 54 260 44 322 16 676 -80 1010 -70 243 -143 410 -428 980
-133 264 -258 516 -278 560 -72 158 -79 176 -148 358 -41 110 -100 321 -116
417 -3 14 -9 48 -14 75 -22 115 -31 240 -29 400 1 94 2 209 3 256 0 64 -3 90
-14 101 -39 38 -86 47 -145 26z m-68 -410 c1 -121 8 -239 19 -328 20 -162 117
-528 184 -695 115 -285 142 -343 457 -965 182 -360 266 -546 320 -709 14 -42
29 -85 33 -96 18 -47 51 -178 70 -280 33 -183 43 -387 25 -551 -4 -33 -7 -66
-7 -74 -1 -26 -58 -293 -74 -345 -58 -189 -151 -362 -278 -520 -66 -82 -178
-194 -231 -233 -27 -19 -72 -52 -100 -73 -163 -121 -416 -228 -636 -268 -62
-12 -154 -19 -233 -20 -112 -1 -151 3 -270 29 -253 56 -379 69 -593 65 -106
-2 -197 -6 -202 -10 -6 -3 -74 -6 -153 -6 -223 0 -312 29 -591 191 -230 134
-382 276 -519 486 -175 269 -280 562 -323 904 -22 174 -16 455 15 628 42 239
133 515 224 682 20 36 48 88 61 115 14 28 34 61 44 75 10 14 38 57 62 95 138
222 415 537 670 766 40 35 82 73 93 84 12 11 44 38 71 60 28 21 52 42 55 45 7
8 140 112 167 130 12 8 54 40 95 71 74 57 386 269 395 269 2 0 23 13 46 29 76
52 245 150 442 258 141 77 583 293 599 293 8 0 18 5 21 10 3 6 14 10 23 10 15
0 17 -14 19 -122z"/>
</g>
</svg>
