<?xml version="1.0" standalone="no"?>
<!DOCTYPE svg PUBLIC "-//W3C//DTD SVG 20010904//EN"
 "http://www.w3.org/TR/2001/REC-SVG-20010904/DTD/svg10.dtd">
<svg version="1.0" xmlns="http://www.w3.org/2000/svg"
 width="437.000000pt" height="352.000000pt" viewBox="0 0 437.000000 352.000000"
 preserveAspectRatio="xMidYMid meet">
<metadata>
Created by potrace 1.16, written by Peter Selinger 2001-2019
</metadata>
<g transform="translate(0.000000,352.000000) scale(0.100000,-0.100000)"
fill="#000000" stroke="none">
<path d="M2060 2979 c-141 -16 -449 -107 -513 -152 -16 -10 -29 -18 -31 -16
-1 2 -8 19 -15 37 -8 17 -16 32 -20 32 -6 0 -176 -265 -186 -291 -5 -13 16
-19 127 -39 73 -12 151 -26 173 -31 22 -4 41 -6 43 -4 3 2 -3 23 -12 46 -9 23
-16 43 -14 44 13 12 195 80 279 103 265 75 420 62 739 -59 58 -22 113 -42 124
-44 29 -7 31 -13 17 -51 -7 -20 -11 -38 -8 -40 8 -9 337 58 337 68 0 13 -181
278 -190 278 -4 0 -13 -13 -20 -30 -15 -35 -27 -37 -72 -11 -55 32 -287 112
-398 137 -119 27 -250 35 -360 23z"/>
<path d="M2010 2073 c-36 -25 -42 -32 -241 -298 -100 -132 -184 -241 -187
-242 -4 -2 -22 20 -40 48 -64 98 -134 113 -203 42 -45 -46 -993 -1223 -1008
-1252 -6 -11 -11 -36 -11 -56 0 -77 94 -122 161 -77 15 9 124 139 244 287 120
149 324 402 453 563 185 228 238 290 247 280 7 -7 55 -76 107 -153 367 -543
674 -992 683 -1001 67 -69 185 -28 185 64 0 34 -16 63 -105 196 -58 85 -123
181 -145 212 -35 50 -38 60 -26 73 7 9 172 203 366 431 193 228 355 416 359
417 3 1 224 -304 491 -679 267 -374 496 -692 510 -705 76 -71 199 0 172 100
-9 32 -1040 1486 -1092 1541 -34 35 -95 40 -133 9 -14 -10 -80 -83 -147 -162
l-122 -142 -81 104 c-45 57 -129 164 -187 239 -58 74 -119 145 -136 157 -37
25 -81 27 -114 4z m224 -476 c80 -104 146 -192 146 -197 0 -6 -339 -411 -384
-458 -9 -10 -41 30 -150 192 l-138 204 178 236 c143 191 180 234 190 224 6 -7
78 -98 158 -201z"/>
</g>
</svg>
