<?xml version="1.0" standalone="no"?>
<!DOCTYPE svg PUBLIC "-//W3C//DTD SVG 20010904//EN"
 "http://www.w3.org/TR/2001/REC-SVG-20010904/DTD/svg10.dtd">
<svg version="1.0" xmlns="http://www.w3.org/2000/svg"
 width="1044.000000pt" height="925.000000pt" viewBox="0 0 1044.000000 925.000000"
 preserveAspectRatio="xMidYMid meet">
<metadata>
Created by potrace 1.16, written by Peter Selinger 2001-2019
</metadata>
<g transform="translate(0.000000,925.000000) scale(0.100000,-0.100000)"
fill="#000000" stroke="none">
<path d="M4568 8673 c-218 -327 -292 -446 -293 -468 l0 -30 155 -3 156 -2 -8
-98 c-27 -352 -94 -548 -212 -617 -95 -54 -175 -64 -651 -75 -437 -10 -547
-19 -735 -60 -253 -56 -445 -156 -609 -320 -181 -180 -302 -414 -362 -700 -38
-182 -30 -468 18 -640 48 -171 125 -333 209 -441 25 -31 192 -198 223 -223
123 -97 411 -236 568 -275 21 -5 81 -21 133 -34 249 -65 608 -116 995 -142 44
-2 152 -9 240 -15 88 -6 275 -12 415 -15 616 -12 1180 -56 1502 -119 560 -110
794 -268 873 -591 16 -66 24 -282 12 -302 -3 -5 -8 -28 -12 -52 -18 -120 -107
-292 -193 -373 -162 -152 -384 -194 -1037 -198 -495 -2 -728 -59 -939 -229
-129 -104 -219 -231 -291 -410 -33 -83 -76 -247 -90 -341 -4 -25 -8 -56 -10
-70 -3 -14 -9 -63 -14 -110 -8 -72 -13 -87 -32 -100 -133 -87 -217 -183 -265
-300 -32 -78 -43 -222 -24 -313 19 -92 73 -190 149 -265 76 -77 148 -122 253
-160 66 -24 86 -27 218 -27 122 0 156 3 215 22 195 62 355 220 409 402 21 72
21 221 0 292 -38 126 -119 236 -233 314 -81 56 -80 51 -56 199 32 195 82 316
158 381 80 68 234 95 554 95 365 1 709 25 858 61 128 30 212 58 295 97 250
116 453 322 573 582 65 140 94 233 122 391 11 62 21 240 18 309 -4 64 -15 142
-39 274 -20 105 -122 327 -197 426 -63 84 -214 229 -297 286 -321 220 -778
340 -1525 404 -218 19 -590 37 -780 39 -321 3 -820 32 -1150 67 -127 14 -381
57 -491 84 -332 80 -527 186 -633 345 -155 230 -142 604 30 856 143 212 375
277 994 280 262 1 460 13 589 34 532 91 810 467 866 1173 6 75 13 152 16 170
l5 32 134 0 c186 0 184 -7 45 206 -427 658 -476 729 -503 732 -24 3 -46 -27
-319 -435z"/>
</g>
</svg>
