<?xml version="1.0" standalone="no"?>
<!DOCTYPE svg PUBLIC "-//W3C//DTD SVG 20010904//EN"
 "http://www.w3.org/TR/2001/REC-SVG-20010904/DTD/svg10.dtd">
<svg version="1.0" xmlns="http://www.w3.org/2000/svg"
 width="1044.000000pt" height="925.000000pt" viewBox="0 0 1044.000000 925.000000"
 preserveAspectRatio="xMidYMid meet">
<metadata>
Created by potrace 1.16, written by Peter Selinger 2001-2019
</metadata>
<g transform="translate(0.000000,925.000000) scale(0.100000,-0.100000)"
fill="#000000" stroke="none">
<path d="M4568 8673 c-218 -327 -292 -446 -293 -468 l0 -30 158 -3 c141 -2
157 -4 158 -20 0 -9 2 -30 4 -47 2 -16 6 -70 10 -120 5 -77 20 -187 40 -300
37 -203 141 -492 247 -684 143 -259 242 -398 603 -851 507 -635 678 -905 771
-1215 32 -108 44 -294 24 -384 -64 -296 -236 -567 -661 -1042 -376 -421 -432
-485 -459 -523 -8 -11 -23 -30 -33 -41 -28 -30 -147 -199 -200 -285 -141 -229
-257 -560 -283 -805 -3 -33 -8 -69 -9 -80 -2 -11 -4 -43 -4 -72 -1 -51 -1 -51
-53 -81 -128 -72 -223 -177 -275 -304 -31 -76 -42 -221 -23 -311 19 -92 73
-190 149 -265 76 -77 148 -122 253 -160 66 -24 86 -27 218 -27 122 0 156 3
215 22 195 62 355 220 409 402 10 33 16 92 16 146 0 155 -49 273 -160 385 -73
72 -180 140 -222 140 -26 0 -28 3 -28 44 0 144 74 416 159 586 107 214 200
335 582 760 490 546 670 793 806 1110 75 175 104 306 110 500 5 142 3 180 -16
277 -50 259 -170 529 -377 844 -71 109 -247 352 -278 385 -6 7 -20 24 -31 40
-11 15 -108 138 -215 274 -360 451 -467 606 -575 825 -128 260 -177 448 -210
808 l-7 67 196 0 c182 0 196 1 205 19 11 20 9 24 -392 636 -156 239 -187 280
-210 283 -24 3 -46 -27 -319 -435z"/>
</g>
</svg>
