<?xml version="1.0" standalone="no"?>
<!DOCTYPE svg PUBLIC "-//W3C//DTD SVG 20010904//EN"
 "http://www.w3.org/TR/2001/REC-SVG-20010904/DTD/svg10.dtd">
<svg version="1.0" xmlns="http://www.w3.org/2000/svg"
 width="570.000000pt" height="365.000000pt" viewBox="0 0 570.000000 365.000000"
 preserveAspectRatio="xMidYMid meet">
<metadata>
Created by potrace 1.16, written by Peter Selinger 2001-2019
</metadata>
<g transform="translate(0.000000,365.000000) scale(0.100000,-0.100000)"
fill="#000000" stroke="none">
<path d="M2505 3059 c-335 -25 -703 -104 -1155 -245 -184 -58 -679 -237 -881
-319 -12 -5 -20 4 -33 36 -9 23 -21 38 -25 33 -15 -17 -186 -239 -210 -272
-13 -18 -21 -35 -19 -38 3 -2 81 -17 174 -34 93 -17 181 -33 197 -36 l27 -6
-19 50 -20 50 137 52 c792 302 1276 438 1747 492 141 15 498 16 640 0 404 -46
845 -159 1425 -367 148 -53 479 -182 488 -190 1 -1 -7 -24 -18 -50 -11 -26
-19 -49 -18 -50 7 -6 370 91 370 98 0 5 -44 80 -99 167 l-98 159 -23 -52 c-13
-29 -25 -53 -27 -55 -2 -2 -25 8 -51 21 -98 49 -617 234 -919 327 -629 193
-1122 264 -1590 229z"/>
<path d="M2590 2083 c-36 -25 -42 -32 -241 -298 -100 -132 -184 -241 -187
-242 -4 -2 -22 20 -40 48 -64 98 -134 113 -203 42 -45 -46 -993 -1223 -1008
-1252 -6 -11 -11 -36 -11 -56 0 -77 94 -122 161 -77 15 9 124 139 244 287 120
149 324 402 453 563 185 228 238 290 247 280 7 -7 55 -76 107 -153 367 -543
674 -992 683 -1001 67 -69 185 -28 185 64 0 34 -16 63 -105 196 -58 85 -123
181 -145 212 -35 50 -38 60 -26 73 7 9 172 203 366 431 193 228 355 416 359
417 3 1 224 -304 491 -679 267 -374 496 -692 510 -705 76 -71 199 0 172 100
-9 32 -1040 1486 -1092 1541 -34 35 -95 40 -133 9 -14 -10 -80 -83 -147 -162
l-122 -142 -81 104 c-45 57 -129 164 -187 239 -58 74 -119 145 -136 157 -37
25 -81 27 -114 4z m224 -476 c80 -104 146 -192 146 -197 0 -6 -339 -411 -384
-458 -9 -10 -41 30 -150 192 l-138 204 178 236 c143 191 180 234 190 224 6 -7
78 -98 158 -201z"/>
</g>
</svg>
