<?xml version="1.0" standalone="no"?>
<!DOCTYPE svg PUBLIC "-//W3C//DTD SVG 20010904//EN"
 "http://www.w3.org/TR/2001/REC-SVG-20010904/DTD/svg10.dtd">
<svg version="1.0" xmlns="http://www.w3.org/2000/svg"
 width="424.000000pt" height="307.000000pt" viewBox="0 0 424.000000 307.000000"
 preserveAspectRatio="xMidYMid meet">
<metadata>
Created by potrace 1.16, written by Peter Selinger 2001-2019
</metadata>
<g transform="translate(0.000000,307.000000) scale(0.100000,-0.100000)"
fill="#000000" stroke="none">
<path d="M1875 2769 c-93 -11 -347 -61 -420 -83 -27 -8 -97 -29 -155 -47 -169
-50 -501 -169 -547 -195 -23 -13 -46 -24 -51 -24 -5 0 -17 18 -27 40 l-18 40
-44 -77 c-25 -43 -59 -103 -76 -133 -16 -30 -35 -63 -41 -72 -7 -11 -7 -21 -1
-27 10 -9 345 -81 345 -74 0 2 -9 21 -20 43 -11 22 -20 44 -20 49 0 19 413
168 675 242 77 22 201 52 275 66 120 24 159 26 355 27 238 0 298 -7 530 -65
159 -40 296 -85 550 -179 116 -43 220 -81 232 -84 22 -7 22 -9 8 -43 l-15 -35
83 7 c45 4 89 8 97 10 8 1 57 6 108 10 50 4 92 9 92 11 0 4 -205 281 -220 297
-4 5 -17 -8 -29 -28 -20 -35 -23 -36 -44 -22 -28 18 -342 136 -515 193 -174
58 -368 108 -517 135 -136 24 -450 34 -590 18z"/>
<path d="M1980 2033 c-36 -25 -42 -32 -241 -298 -100 -132 -184 -241 -187
-242 -4 -2 -22 20 -40 48 -64 98 -134 113 -203 42 -45 -46 -993 -1223 -1008
-1252 -6 -11 -11 -36 -11 -56 0 -77 94 -122 161 -77 15 9 124 139 244 287 120
149 324 402 453 563 185 228 238 290 247 280 7 -7 55 -76 107 -153 367 -543
674 -992 683 -1001 67 -69 185 -28 185 64 0 34 -16 63 -105 196 -58 85 -123
181 -145 212 -35 50 -38 60 -26 73 7 9 172 203 366 431 193 228 355 416 359
417 3 1 224 -304 491 -679 267 -374 496 -692 510 -705 76 -71 199 0 172 100
-9 32 -1040 1486 -1092 1541 -34 35 -95 40 -133 9 -14 -10 -80 -83 -147 -162
l-122 -142 -81 104 c-45 57 -129 164 -187 239 -58 74 -119 145 -136 157 -37
25 -81 27 -114 4z m224 -476 c80 -104 146 -192 146 -197 0 -6 -339 -411 -384
-458 -9 -10 -41 30 -150 192 l-138 204 178 236 c143 191 180 234 190 224 6 -7
78 -98 158 -201z"/>
</g>
</svg>
