<?xml version="1.0" standalone="no"?>
<!DOCTYPE svg PUBLIC "-//W3C//DTD SVG 20010904//EN"
 "http://www.w3.org/TR/2001/REC-SVG-20010904/DTD/svg10.dtd">
<svg version="1.0" xmlns="http://www.w3.org/2000/svg"
 width="1013.000000pt" height="564.000000pt" viewBox="0 0 1013.000000 564.000000"
 preserveAspectRatio="xMidYMid meet">
<metadata>
Created by potrace 1.16, written by Peter Selinger 2001-2019
</metadata>
<g transform="translate(0.000000,564.000000) scale(0.100000,-0.100000)"
fill="#000000" stroke="none">
<path d="M4924 5366 c-17 -8 -48 -29 -69 -47 -21 -19 -200 -249 -397 -512
l-359 -478 -41 58 c-128 182 -163 209 -268 201 -47 -3 -66 -11 -102 -38 -24
-19 -347 -411 -748 -909 -844 -1048 -1160 -1438 -1590 -1962 -179 -217 -335
-413 -348 -436 -44 -81 -21 -192 50 -246 83 -63 179 -55 264 20 57 51 663 793
1709 2091 422 524 769 951 771 949 3 -2 91 -132 198 -288 l193 -284 -266 -5
c-253 -5 -268 -6 -314 -28 -56 -28 -101 -80 -122 -141 -23 -67 -23 -1645 0
-1712 21 -61 66 -113 122 -141 l48 -23 969 -5 969 -5 145 -210 c80 -115 161
-224 180 -242 126 -113 326 -26 324 141 0 65 -15 99 -97 216 l-66 95 278 5
c266 5 280 6 326 28 26 13 60 40 77 60 62 75 60 46 60 937 0 914 3 872 -75
950 -75 75 -73 75 -637 75 -274 0 -498 2 -498 5 0 14 854 1005 860 998 4 -4
414 -577 910 -1273 496 -696 912 -1276 925 -1290 13 -14 172 -227 355 -475
183 -247 344 -462 358 -478 156 -165 415 8 322 214 -11 24 -200 287 -420 584
-220 297 -817 1123 -1325 1835 -509 712 -941 1315 -962 1339 -78 92 -185 105
-277 32 -20 -16 -131 -141 -247 -277 -116 -137 -219 -257 -228 -267 -17 -18
-31 -2 -352 410 -378 484 -389 497 -440 524 -44 22 -120 24 -165 5z m379 -890
c289 -371 295 -380 279 -401 -9 -11 -127 -150 -261 -308 l-244 -287 -201 0
-202 0 -165 241 c-90 133 -166 246 -167 251 -4 10 650 888 659 885 4 -1 140
-173 302 -381z m1285 -1228 c17 -17 17 -1569 0 -1586 -17 -17 -2869 -17 -2886
0 -17 17 -17 1569 0 1586 17 17 2869 17 2886 0z"/>
</g>
</svg>
