<?xml version="1.0" standalone="no"?>
<!DOCTYPE svg PUBLIC "-//W3C//DTD SVG 20010904//EN"
 "http://www.w3.org/TR/2001/REC-SVG-20010904/DTD/svg10.dtd">
<svg version="1.0" xmlns="http://www.w3.org/2000/svg"
 width="2056.000000pt" height="1032.000000pt" viewBox="0 0 2056.000000 1032.000000"
 preserveAspectRatio="xMidYMid meet">
<metadata>
Created by potrace 1.16, written by Peter Selinger 2001-2019
</metadata>
<g transform="translate(0.000000,1032.000000) scale(0.100000,-0.100000)"
fill="#000000" stroke="none">
<path d="M8590 7899 c-492 -37 -940 -239 -1299 -584 -571 -550 -783 -1375
-545 -2124 19 -62 37 -118 40 -125 4 -11 -171 -14 -933 -18 -920 -5 -940 -6
-985 -26 -138 -61 -133 -254 7 -313 24 -10 250 -12 1061 -10 l1031 3 55 -79
c31 -44 86 -114 122 -157 36 -42 783 -798 1661 -1679 l1595 -1602 1593 1600
c877 880 1617 1627 1646 1660 69 78 148 185 195 261 l37 61 914 7 c502 4 930
12 951 16 79 18 134 84 134 162 0 66 -24 114 -73 146 l-41 27 -859 -3 -860 -4
6 24 c3 12 17 64 31 114 40 139 66 314 73 479 32 800 -403 1551 -1118 1929
-736 389 -1643 299 -2294 -227 -80 -65 -243 -227 -303 -302 l-32 -40 -32 40
c-60 75 -223 237 -303 302 -340 275 -737 430 -1185 463 -74 5 -146 9 -160 9
-14 -1 -72 -5 -130 -10z m305 -303 c342 -17 719 -173 1012 -419 187 -158 374
-404 464 -612 13 -30 26 -55 29 -55 3 0 16 25 29 55 100 232 324 512 539 672
357 268 754 387 1211 362 786 -44 1471 -638 1631 -1416 69 -332 43 -689 -72
-993 l-25 -65 -59 -8 c-32 -4 -105 -6 -162 -5 l-102 3 -205 439 c-112 241
-216 454 -231 473 -38 50 -81 73 -137 73 -82 0 -133 -40 -168 -131 -12 -30
-92 -303 -179 -608 -88 -304 -160 -555 -162 -556 -2 -2 -131 537 -287 1198
-156 661 -293 1225 -303 1254 -41 113 -162 155 -259 90 -35 -24 -81 -97 -99
-157 -6 -19 -121 -827 -255 -1795 -135 -968 -248 -1775 -252 -1794 -5 -28
-100 321 -454 1659 -247 932 -454 1707 -460 1723 -31 74 -91 117 -164 117 -84
0 -133 -41 -172 -147 -18 -48 -99 -478 -273 -1447 -135 -759 -249 -1376 -252
-1370 -3 5 -142 473 -309 1039 -212 721 -310 1042 -328 1070 -78 119 -227 114
-306 -10 -22 -34 -78 -206 -200 -609 l-171 -561 -314 -5 c-173 -3 -320 -4
-325 -2 -14 3 -77 163 -109 277 -49 172 -60 264 -60 485 1 180 4 220 27 331
148 725 697 1277 1413 1420 103 20 304 38 369 32 17 -1 75 -4 130 -7z m2955
-2397 c144 -607 270 -1122 280 -1145 65 -143 250 -152 319 -16 10 20 103 334
206 696 103 363 190 668 194 678 5 14 43 -59 146 -279 150 -324 175 -362 254
-383 29 -8 52 -8 79 0 39 10 172 14 172 4 0 -17 -127 -154 -403 -434 -698
-709 -2692 -2700 -2703 -2700 -7 0 -14 4 -16 10 -1 5 -563 571 -1248 1257
-1502 1505 -1790 1797 -1790 1814 0 10 65 11 320 6 263 -6 320 -5 320 6 0 8
12 24 26 38 14 13 32 35 39 49 7 14 63 193 125 398 62 204 115 371 116 369 2
-2 143 -478 314 -1058 171 -580 318 -1074 327 -1099 18 -51 89 -125 139 -146
90 -38 188 3 228 94 8 20 124 647 256 1392 133 745 244 1363 248 1372 4 11
180 -636 452 -1665 244 -925 453 -1700 465 -1721 46 -88 146 -113 255 -63 62
28 93 57 114 108 8 19 124 821 258 1781 133 961 244 1746 245 1744 1 -1 120
-499 263 -1107z"/>
</g>
</svg>
