<?xml version="1.0" standalone="no"?>
<!DOCTYPE svg PUBLIC "-//W3C//DTD SVG 20010904//EN"
 "http://www.w3.org/TR/2001/REC-SVG-20010904/DTD/svg10.dtd">
<svg version="1.0" xmlns="http://www.w3.org/2000/svg"
 width="2056.000000pt" height="1032.000000pt" viewBox="0 0 2056.000000 1032.000000"
 preserveAspectRatio="xMidYMid meet">
<metadata>
Created by potrace 1.16, written by Peter Selinger 2001-2019
</metadata>
<g transform="translate(0.000000,1032.000000) scale(0.100000,-0.100000)"
fill="#000000" stroke="none">
<path d="M8590 7899 c-492 -37 -940 -239 -1299 -584 -571 -550 -783 -1375
-545 -2124 19 -62 37 -118 40 -125 4 -11 -171 -14 -933 -18 -920 -5 -940 -6
-985 -26 -138 -61 -133 -254 7 -313 24 -10 250 -12 1061 -10 l1031 3 55 -79
c31 -44 86 -114 122 -157 36 -42 783 -798 1661 -1679 l1595 -1602 1593 1600
c877 880 1617 1627 1646 1660 69 78 148 185 195 261 l37 61 914 7 c502 4 930
12 951 16 79 18 134 84 134 162 0 66 -24 114 -73 146 l-41 27 -859 -3 -860 -4
6 24 c3 12 17 64 31 114 40 139 66 314 73 479 32 800 -403 1551 -1118 1929
-736 389 -1643 299 -2294 -227 -80 -65 -243 -227 -303 -302 l-32 -40 -32 40
c-60 75 -223 237 -303 302 -340 275 -737 430 -1185 463 -74 5 -146 9 -160 9
-14 -1 -72 -5 -130 -10z m305 -303 c342 -17 719 -173 1012 -419 187 -158 374
-404 464 -612 13 -30 26 -55 29 -55 3 0 16 25 29 55 100 232 324 512 539 672
357 268 754 387 1211 362 786 -44 1471 -638 1631 -1416 69 -332 43 -689 -72
-993 l-25 -65 -50 -6 c-27 -4 -396 -8 -818 -10 l-769 -4 -126 470 c-153 569
-151 562 -210 601 -74 48 -154 39 -217 -24 -21 -20 -310 -427 -642 -904 l-604
-866 -130 206 c-71 114 -271 434 -445 710 -173 277 -330 519 -348 537 -60 60
-141 68 -214 20 -19 -12 -230 -196 -469 -408 l-434 -387 -551 -2 c-303 -2
-556 -2 -561 0 -14 3 -77 163 -109 277 -49 172 -60 264 -60 485 1 180 4 220
27 331 148 725 697 1277 1413 1420 103 20 304 38 369 32 17 -1 75 -4 130 -7z
m2769 -2306 c48 -182 85 -338 82 -346 -10 -26 14 -97 42 -127 62 -66 3 -62
900 -58 446 2 812 0 812 -3 0 -19 -120 -150 -403 -436 -698 -709 -2692 -2700
-2703 -2700 -7 0 -14 4 -16 10 -1 5 -563 571 -1248 1257 -1461 1464 -1790
1797 -1790 1811 0 8 158 12 513 14 561 3 540 1 597 63 14 16 186 172 383 348
299 266 361 317 372 306 7 -8 209 -329 450 -714 240 -385 451 -715 468 -733
46 -48 78 -62 147 -62 68 0 90 8 137 53 18 17 286 394 595 838 310 445 566
808 569 809 3 0 45 -149 93 -330z"/>
</g>
</svg>
