<?xml version="1.0" standalone="no"?>
<!DOCTYPE svg PUBLIC "-//W3C//DTD SVG 20010904//EN"
 "http://www.w3.org/TR/2001/REC-SVG-20010904/DTD/svg10.dtd">
<svg version="1.0" xmlns="http://www.w3.org/2000/svg"
 width="2056.000000pt" height="1032.000000pt" viewBox="0 0 2056.000000 1032.000000"
 preserveAspectRatio="xMidYMid meet">
<metadata>
Created by potrace 1.16, written by Peter Selinger 2001-2019
</metadata>
<g transform="translate(0.000000,1032.000000) scale(0.100000,-0.100000)"
fill="#000000" stroke="none">
<path d="M8590 7899 c-492 -37 -940 -239 -1299 -584 -571 -550 -783 -1375
-545 -2124 19 -62 37 -118 40 -125 4 -11 -171 -14 -933 -18 -920 -5 -940 -6
-985 -26 -138 -61 -133 -254 7 -313 24 -10 250 -12 1061 -10 l1031 3 55 -79
c31 -44 86 -114 122 -157 36 -42 783 -798 1661 -1679 l1595 -1602 1593 1600
c877 880 1617 1627 1646 1660 69 78 148 185 195 261 l37 61 914 7 c502 4 930
12 951 16 79 18 134 84 134 162 0 66 -24 114 -73 146 l-41 27 -859 -3 -860 -4
6 24 c3 12 17 64 31 114 40 139 66 314 73 479 32 800 -403 1551 -1118 1929
-736 389 -1643 299 -2294 -227 -80 -65 -243 -227 -303 -302 l-32 -40 -32 40
c-60 75 -223 237 -303 302 -340 275 -737 430 -1185 463 -74 5 -146 9 -160 9
-14 -1 -72 -5 -130 -10z m305 -303 c342 -17 719 -173 1012 -419 187 -158 374
-404 464 -612 13 -30 26 -55 29 -55 3 0 16 25 29 55 100 232 324 512 539 672
357 268 754 387 1211 362 786 -44 1471 -638 1631 -1416 69 -332 43 -689 -72
-993 l-25 -65 -49 -7 c-93 -12 -381 -9 -392 5 -5 6 -141 228 -302 492 -161
264 -304 495 -318 513 -83 109 -232 92 -299 -35 -17 -32 -252 -546 -523 -1143
-270 -597 -495 -1088 -498 -1092 -4 -4 -207 542 -451 1215 -244 672 -458 1249
-475 1282 -23 44 -42 66 -71 82 -93 53 -204 10 -256 -97 -16 -32 -132 -455
-280 -1022 l-254 -966 -191 756 c-105 417 -194 769 -197 783 -10 38 -48 91
-86 116 -62 42 -175 27 -239 -32 -23 -21 -139 -201 -307 -479 l-270 -445 -570
5 c-313 3 -570 7 -571 7 -14 24 -70 177 -92 252 -53 179 -66 278 -66 505 1
180 4 220 27 331 148 725 697 1277 1413 1420 103 20 304 38 369 32 17 -1 75
-4 130 -7z m1795 -3023 c227 -626 421 -1159 432 -1184 30 -71 76 -110 147
-125 94 -19 154 1 204 68 13 18 248 528 522 1133 274 605 508 1120 520 1144
l22 44 243 -399 c133 -220 253 -411 266 -425 14 -14 43 -35 65 -47 37 -20 55
-22 215 -22 96 0 174 -3 174 -6 0 -17 -127 -154 -403 -434 -698 -709 -2692
-2700 -2703 -2700 -7 0 -14 4 -16 10 -1 5 -563 571 -1248 1257 -1476 1479
-1790 1797 -1790 1812 0 9 135 11 513 9 580 -3 528 -10 628 84 45 42 95 116
239 353 100 165 183 301 185 303 1 1 102 -397 225 -885 122 -489 229 -901 237
-918 20 -40 71 -93 107 -112 16 -8 50 -15 76 -15 75 0 133 40 162 112 8 19
136 495 283 1058 148 562 272 1022 275 1022 4 0 192 -512 420 -1137z"/>
</g>
</svg>
