<?xml version="1.0" standalone="no"?>
<!DOCTYPE svg PUBLIC "-//W3C//DTD SVG 20010904//EN"
 "http://www.w3.org/TR/2001/REC-SVG-20010904/DTD/svg10.dtd">
<svg version="1.0" xmlns="http://www.w3.org/2000/svg"
 width="1013.000000pt" height="564.000000pt" viewBox="0 0 1013.000000 564.000000"
 preserveAspectRatio="xMidYMid meet">
<metadata>
Created by potrace 1.16, written by Peter Selinger 2001-2019
</metadata>
<g transform="translate(0.000000,564.000000) scale(0.100000,-0.100000)"
fill="#000000" stroke="none">
<path d="M5124 3423 c-17 -10 -42 -27 -56 -38 -29 -24 -1848 -2280 -1886
-2339 -20 -31 -27 -57 -30 -106 -3 -58 0 -70 26 -111 72 -113 225 -118 323
-13 20 22 408 502 864 1067 455 566 831 1025 835 1020 4 -4 337 -493 739
-1085 441 -648 746 -1089 768 -1107 151 -124 372 26 309 211 -14 41 -1562
2332 -1648 2439 -59 73 -173 102 -244 62z"/>
</g>
</svg>
