<?xml version="1.0" standalone="no"?>
<!DOCTYPE svg PUBLIC "-//W3C//DTD SVG 20010904//EN"
 "http://www.w3.org/TR/2001/REC-SVG-20010904/DTD/svg10.dtd">
<svg version="1.0" xmlns="http://www.w3.org/2000/svg"
 width="1013.000000pt" height="564.000000pt" viewBox="0 0 1013.000000 564.000000"
 preserveAspectRatio="xMidYMid meet">
<metadata>
Created by potrace 1.16, written by Peter Selinger 2001-2019
</metadata>
<g transform="translate(0.000000,564.000000) scale(0.100000,-0.100000)"
fill="#000000" stroke="none">
<path d="M6848 3766 c-20 -7 -51 -25 -69 -40 -17 -15 -361 -414 -763 -887
-570 -671 -733 -856 -742 -847 -6 7 -199 290 -429 628 -230 338 -431 631 -448
652 -70 87 -194 104 -279 38 -49 -38 -1878 -2303 -1915 -2371 -52 -98 -16
-222 79 -268 85 -41 179 -20 249 55 20 22 408 502 864 1067 455 566 831 1025
835 1020 4 -4 337 -493 739 -1085 441 -648 746 -1089 768 -1107 49 -40 117
-56 174 -41 78 21 150 115 149 195 -1 51 -53 137 -288 483 -161 236 -250 377
-245 385 29 48 1367 1607 1373 1600 4 -4 414 -577 910 -1273 496 -696 916
-1280 933 -1298 38 -40 70 -58 118 -67 74 -14 168 36 206 109 22 42 21 122 -2
171 -20 42 -1938 2739 -2002 2814 -61 72 -135 95 -215 67z"/>
</g>
</svg>
